<mxfile host="app.diagrams.net" modified="2023-06-13T12:13:24.531Z" agent="Mozilla/5.0 (Windows NT 10.0; Win64; x64) AppleWebKit/537.36 (KHTML, like Gecko) Chrome/112.0.0.0 YaBrowser/23.5.1.714 Yowser/2.5 Safari/537.36" version="21.3.8" etag="4Fv0qzEeZ2flL8xqSWtS" type="github">
  <diagram name="Страница 1" id="Loe1We7F--MuODhUGiN_">
    <mxGraphModel>
      <root>
        <mxCell id="0" />
        <mxCell id="1" parent="0" />
      </root>
    </mxGraphModel>
  </diagram>
</mxfile>
